<svg xmlns="http://www.w3.org/2000/svg" width="198" height="103"><g fill="none" fill-rule="evenodd" transform="matrix(-1 0 0 1 198 0)"><path fill="#F4F4F4" fill-rule="nonzero" d="M44.6 39.23a24.2 24.2 0 01-.7-7.87A24.35 24.35 0 0166.92 8.95a24.22 24.22 0 0120.67 9.8 5.86 5.86 0 005.16 2.4 77.65 77.65 0 0129.98 3.43c1.9.61 3.95.12 5.48-1.17a16.92 16.92 0 0111.17-3.97 17.04 17.04 0 0116.64 15.92c.12 1.98-.1 3.9-.62 5.7a5.65 5.65 0 001.16 5.4 77.16 77.16 0 0119.96 51.89H21.62A77.22 77.22 0 0143.22 44.7c1.39-1.43 1.9-3.52 1.39-5.47z"/><circle cx="166.14" cy="29.23" fill="#F4F4F4" fill-rule="nonzero" r="2.54"/><ellipse cx="166.46" cy="40.96" fill="#F4F4F4" fill-rule="nonzero" rx="4.13" ry="4.12"/><circle cx="87.42" cy="18.76" fill="#F4F4F4" fill-rule="nonzero" r="9.98"/><circle cx="33.27" cy="40.98" fill="#F4F4F4" fill-rule="nonzero" r="2.54"/><path fill="#E8E8E8" fill-rule="nonzero" d="M128.71 102.14a60.5 60.5 0 00-60.45-60.56 60.11 60.11 0 00-35.55 11.58c-.96.7-2.24.78-3.27.2a10.35 10.35 0 00-15.48 8.06c-.23 2.64.52 5.09 1.93 7.04A3 3 0 0116 71.7a60.35 60.35 0 00-8.2 30.45h120.9z"/><ellipse cx="44.89" cy="63.39" fill="#D0CFCF" fill-rule="nonzero" rx="6.69" ry="6.7" transform="rotate(1 44.89 63.4)"/><path fill="#E7E5E5" fill-rule="nonzero" d="M116.72 46.8a5.98 5.98 0 004.55-7.13 5.98 5.98 0 10-11.7 2.57 6 6 0 007.14 4.56z"/><circle cx="135.05" cy="55.66" r="2.82" fill="#FFF" fill-rule="nonzero"/><path fill="#E5E5E5" fill-rule="nonzero" d="M197.76 102.18H.46a8.27 8.27 0 016.67-3.52H191.1c2.59 0 5.04 1.3 6.66 3.52z"/><path fill="#B9B7B7" d="M48.3 57.58c-.55 1.55-2.08 5.67-4.6 12.36 3.3.46 5.66-.65 7.05-3.34 1.8-3.48.5-7.35-2.45-9.02z"/><g fill-rule="nonzero"><path fill="#151F33" d="M148.05 93.28c0-4.73-4.02-8.57-8.98-8.57s-8.98 3.84-8.98 8.57 4.03 8.58 8.98 8.58h4.5c4.95 0 8.97-3.85 8.97-8.58h-4.49zm-60.64 0c0-4.73-4.02-8.57-8.98-8.57-4.95 0-8.98 3.84-8.98 8.57s4.03 8.58 8.98 8.58h4.5c4.94 0 8.97-3.85 8.97-8.58H87.4z"/><path fill="#151F33" d="M155.96 93.28h-99.7l8.98-12.88h107.5c1.8 0 2.87 1.92 1.87 3.34a22.68 22.68 0 01-18.65 9.54z"/><path fill="#00D170" d="M98.89 44H74.45L62.42 80.4h52.39l-10.03-31.83a5.96 5.96 0 00-5.9-4.57z"/><path fill="#151F33" d="M98.97 47.83H77.28c-3.52 0-2.62 2.22-3.62 5.46l-6.83 22.2c-.76 2.45 1.16 4.92 3.85 4.92h39.81l-9.55-31.04a2.02 2.02 0 00-1.97-1.54z"/><path fill="#00D170" d="M132.33 80.4h-38.7L86.6 48.58A5.97 5.97 0 0080.71 44h-9.6c-8.76 0-16.49 5.42-19.13 13.4l-7.61 23H29.8c-1.5 0-2.9.72-3.75 1.92l-3 4.29c-1.98 2.85.16 6.67 3.75 6.67h88.75c7.5 0 14.5-3.57 18.66-9.54.98-1.42-.1-3.33-1.88-3.33z"/><path fill="#151F33" d="M80.7 47.83h-9.18a7.92 7.92 0 00-7.63 5.46l-6.83 22.2c-.76 2.45 1.16 4.92 3.85 4.92h25.94c1.27 0 2.22-1.12 1.97-2.3l-6.04-28.66a2.12 2.12 0 00-2.08-1.62z"/><g transform="translate(93.45 84.06)"><ellipse cx="9.68" cy="9.23" fill="#818281" rx="8.98" ry="8.57"/><path fill="#151F33" d="M18.67 9.23c0-4.74-4.02-8.58-8.98-8.58S.72 4.5.72 9.23s4.02 8.57 8.97 8.57h4.5c4.95 0 8.97-3.84 8.97-8.57h-4.49z"/><ellipse cx="9.68" cy="9.23" fill="#FFF" rx="4.49" ry="4.29"/><path fill="#00D170" d="M7.44 9.23c0-2 1.43-3.67 3.37-4.14a4.61 4.61 0 00-1.12-.15A4.38 4.38 0 005.2 9.23c0 2.37 2 4.29 4.5 4.29.38 0 .75-.06 1.11-.15a4.33 4.33 0 01-3.37-4.14z"/></g><g transform="translate(32.87 84.06)"><path fill="#151F33" d="M18.6 9.23C18.6 4.49 14.6.65 9.64.65 4.67.65.65 4.5.65 9.23s4.02 8.57 8.98 8.57h4.49c4.96 0 8.98-3.84 8.98-8.57h-4.5z"/><ellipse cx="9.62" cy="9.23" fill="#FFF" rx="4.49" ry="4.29"/><path fill="#00D170" d="M7.38 9.23c0-2 1.43-3.67 3.37-4.14a4.6 4.6 0 00-1.12-.15 4.38 4.38 0 00-4.49 4.29c0 2.37 2 4.29 4.5 4.29.38 0 .75-.06 1.1-.15a4.33 4.33 0 01-3.36-4.14z"/></g><path fill="#FFF" d="M163.77 84.7h-22.46a2.2 2.2 0 00-2.25 2.14A2.2 2.2 0 00141.3 89h22.46a2.2 2.2 0 002.25-2.15 2.2 2.2 0 00-2.25-2.15z"/><path fill="#00D170" d="M163.77 84.7h-4.49a2.2 2.2 0 012.25 2.14 2.2 2.2 0 01-2.25 2.15h4.49a2.2 2.2 0 002.25-2.15 2.2 2.2 0 00-2.25-2.15z"/></g></g></svg>